<!-- Generated by IcoMoon.io -->
<svg version="1.1" xmlns="http://www.w3.org/2000/svg" width="31" height="32" viewBox="0 0 31 32">
<path d="M24.97 4.654h-18.909c-1.2 0-2.182 0.982-2.182 2.182v18.909c0 1.2 0.982 2.182 2.182 2.182h18.909c1.2 0 2.182-0.982 2.182-2.182v-18.909c0-1.2-0.982-2.182-2.182-2.182zM12.606 23.563h-2.909v-10.182h2.909v10.182zM11.152 11.927c-0.804 0-1.455-0.65-1.455-1.455s0.65-1.455 1.455-1.455c0.804 0 1.455 0.65 1.455 1.455s-0.65 1.455-1.455 1.455zM22.788 23.563h-2.909v-5.818c0-0.804-0.65-1.455-1.455-1.455s-1.455 0.65-1.455 1.455v5.818h-2.909v-10.182h2.909v1.804c0.6-0.823 1.518-1.804 2.545-1.804 1.809 0 3.273 1.628 3.273 3.636v6.545z"></path>
</svg>
