<!-- Generated by IcoMoon.io -->
<svg version="1.1" xmlns="http://www.w3.org/2000/svg" width="31" height="32" viewBox="0 0 31 32">
<path d="M27.919 10.089c-0.147-0.546-0.435-1.045-0.835-1.445s-0.897-0.69-1.443-0.838c-2.025-0.556-10.125-0.565-10.125-0.565s-8.099-0.009-10.125 0.522c-0.546 0.155-1.042 0.448-1.442 0.851s-0.689 0.901-0.841 1.448c-0.534 2.025-0.539 6.224-0.539 6.224s-0.005 4.22 0.525 6.224c0.297 1.108 1.17 1.983 2.279 2.282 2.045 0.556 10.124 0.565 10.124 0.565s8.1 0.009 10.125-0.521c0.546-0.148 1.044-0.436 1.445-0.836s0.69-0.897 0.84-1.443c0.535-2.023 0.539-6.222 0.539-6.222s0.026-4.221-0.526-6.246zM12.925 20.176l0.007-7.758 6.732 3.885-6.739 3.872z"></path>
</svg>
